<?xml version="1.0" encoding="UTF-8"?>
<svg id="Layer_1" xmlns="http://www.w3.org/2000/svg" version="1.1" xmlns:xlink="http://www.w3.org/1999/xlink" viewBox="0 0 100 100">
  <!-- Generator: Adobe Illustrator 29.7.1, SVG Export Plug-In . SVG Version: 2.1.1 Build 8)  -->
  <defs>
    <style>
      .st0 {
        fill: url(#linear-gradient);
      }
    </style>
    <linearGradient id="linear-gradient" x1="2.14" y1="50" x2="97.86" y2="50" gradientUnits="userSpaceOnUse">
      <stop offset="0" stop-color="#0ae1ff"/>
      <stop offset="1" stop-color="#6f5edd"/>
    </linearGradient>
  </defs>
  <path class="st0" d="M84.42,50.01l-1.52.55c-.21.08-.36.28-.36.5v2.03c0,.37.37.63.72.51l1.52-.55c.21-.07.36-.28.36-.5v-2.03c0-.37-.37-.63-.72-.5ZM84.42,50.01l-1.52.55c-.21.08-.36.28-.36.5v2.03c0,.37.37.63.72.51l1.52-.55c.21-.07.36-.28.36-.5v-2.03c0-.37-.37-.63-.72-.5ZM74.52,52.86l-1.52.55c-.21.08-.36.28-.36.5v2.03c0,.37.37.63.72.51l1.52-.55c.21-.08.36-.28.36-.51v-2.03c0-.37-.37-.63-.72-.5ZM74.52,64.15l-1.52.55c-.21.08-.36.28-.36.51v2.03c0,.37.37.63.72.5l1.52-.55c.21-.08.36-.28.36-.51v-2.03c0-.37-.37-.63-.72-.5ZM84.42,50.01l-1.52.55c-.21.08-.36.28-.36.5v2.03c0,.37.37.63.72.51l1.52-.55c.21-.07.36-.28.36-.5v-2.03c0-.37-.37-.63-.72-.5ZM84.42,50.01l-1.52.55c-.21.08-.36.28-.36.5v2.03c0,.37.37.63.72.51l1.52-.55c.21-.07.36-.28.36-.5v-2.03c0-.37-.37-.63-.72-.5ZM74.52,52.86l-1.52.55c-.21.08-.36.28-.36.5v2.03c0,.37.37.63.72.51l1.52-.55c.21-.08.36-.28.36-.51v-2.03c0-.37-.37-.63-.72-.5ZM74.52,64.15l-1.52.55c-.21.08-.36.28-.36.51v2.03c0,.37.37.63.72.5l1.52-.55c.21-.08.36-.28.36-.51v-2.03c0-.37-.37-.63-.72-.5ZM94.04,11.61c-1.53-1.07-3.33-1.62-5.15-1.62-1.03,0-2.06.18-3.05.53l-4.78,1.73v-2.49c0-2.85-1.39-5.52-3.72-7.16-2.33-1.64-5.32-2.03-7.99-1.06L7.91,23.74c-3.45,1.25-5.77,4.55-5.77,8.22v46.6c0,2.85,1.39,5.52,3.72,7.16,1.48,1.03,3.21,1.59,5.02,1.59,1.02,0,2.02-.18,2.97-.52l2.61-.94v4.19c0,2.92,1.42,5.66,3.81,7.34,1.52,1.06,3.3,1.62,5.15,1.62,1.05,0,2.07-.18,3.04-.53l63.47-22.94c3.54-1.28,5.91-4.66,5.91-8.42V18.95c0-2.92-1.42-5.66-3.81-7.34ZM22.39,33.46c-3.54,1.28-5.92,4.66-5.92,8.42v39.19l-4.13,1.5c-.48.17-.97.26-1.46.26-.86,0-1.7-.27-2.43-.78-1.15-.81-1.81-2.08-1.81-3.48V31.96c0-1.78,1.13-3.4,2.81-4L70.88,5.75c1.32-.48,2.73-.29,3.89.52,1.15.8,1.81,2.08,1.81,3.48v4.11l-.32.12-53.86,19.47ZM76.96,68.18c0,.23-.14.43-.36.51l-4.96,1.79c-.35.13-.72-.13-.72-.5v-6.26c0-.23.14-.43.36-.5l4.97-1.8c.35-.12.72.13.72.51v6.25ZM76.96,56.88c0,.23-.14.43-.36.5l-4.96,1.8c-.35.12-.72-.13-.72-.51v-6.25c0-.23.14-.43.36-.51l4.97-1.79c.35-.13.72.13.72.5v6.26ZM86.86,65.34c0,.23-.14.43-.36.51l-4.97,1.79c-.35.13-.72-.13-.72-.5v-6.26c0-.23.14-.43.36-.5l4.96-1.8c.35-.12.72.13.72.51v6.25ZM86.86,54.04c0,.23-.14.43-.36.5l-4.97,1.8c-.35.12-.72-.13-.72-.51v-6.25c0-.23.14-.43.36-.51l4.96-1.79c.35-.13.72.13.72.5v6.26ZM84.42,61.31l-1.52.55c-.21.08-.36.28-.36.51v2.03c0,.37.37.63.72.5l1.52-.55c.21-.08.36-.28.36-.51v-2.03c0-.37-.37-.63-.72-.5ZM84.42,50.01l-1.52.55c-.21.08-.36.28-.36.5v2.03c0,.37.37.63.72.51l1.52-.55c.21-.07.36-.28.36-.5v-2.03c0-.37-.37-.63-.72-.5ZM74.52,64.15l-1.52.55c-.21.08-.36.28-.36.51v2.03c0,.37.37.63.72.5l1.52-.55c.21-.08.36-.28.36-.51v-2.03c0-.37-.37-.63-.72-.5ZM74.52,52.86l-1.52.55c-.21.08-.36.28-.36.5v2.03c0,.37.37.63.72.51l1.52-.55c.21-.08.36-.28.36-.51v-2.03c0-.37-.37-.63-.72-.5ZM74.52,52.86l-1.52.55c-.21.08-.36.28-.36.5v2.03c0,.37.37.63.72.51l1.52-.55c.21-.08.36-.28.36-.51v-2.03c0-.37-.37-.63-.72-.5ZM84.42,50.01l-1.52.55c-.21.08-.36.28-.36.5v2.03c0,.37.37.63.72.51l1.52-.55c.21-.07.36-.28.36-.5v-2.03c0-.37-.37-.63-.72-.5ZM84.42,50.01l-1.52.55c-.21.08-.36.28-.36.5v2.03c0,.37.37.63.72.51l1.52-.55c.21-.07.36-.28.36-.5v-2.03c0-.37-.37-.63-.72-.5ZM74.52,52.86l-1.52.55c-.21.08-.36.28-.36.5v2.03c0,.37.37.63.72.51l1.52-.55c.21-.08.36-.28.36-.51v-2.03c0-.37-.37-.63-.72-.5Z"/>
</svg>